<?xml version="1.0" standalone="no"?><!DOCTYPE svg PUBLIC "-//W3C//DTD SVG 1.1//EN" "http://www.w3.org/Graphics/SVG/1.1/DTD/svg11.dtd"><svg class="icon" width="200px" height="200.00px" viewBox="0 0 1024 1024" version="1.1" xmlns="http://www.w3.org/2000/svg"><path fill="#333333" d="M747.17184 973.9776l-204.72832-68.58752c-9.4208-2.36032-18.85184-4.73088-30.59712-4.73088-11.75552 0-21.18144 2.37056-30.60224 4.73088L276.51584 973.9776v-139.48928c-16.45056-9.46176-32.93184-18.9184-47.0528-30.70976v172.5696c0 25.97888 21.18144 47.25248 47.0528 47.25248 4.73088 0 9.42592 0 14.11584-2.36032l204.7232-68.55168c4.73088-2.36544 9.42592-2.36544 14.12096-2.36544 4.73088 0 9.42592 0 14.11584 2.36544l204.7232 68.55168c4.73088 2.36032 9.42592 2.36032 14.12096 2.36032a47.29344 47.29344 0 0 0 47.08352-47.29344v-172.55936c-14.12096 11.82208-30.60224 21.27872-47.08352 30.74048v139.48928h4.736zM511.84128 0c-232.96 0-423.56736 191.48288-423.56736 425.50272 0 234.01984 190.60736 425.53856 423.56736 425.53856 232.96 0 423.55712-191.47776 423.55712-425.53856C935.3984 191.48288 744.80128 0 511.84128 0z m0 803.74784c-207.08864 0-376.51456-170.20416-376.51456-378.24512 0-208.00512 169.42592-378.20928 376.51456-378.20928 207.08864 0 376.50944 170.20416 376.50944 378.20928 0 208.04096-169.4208 378.24512-376.50944 378.24512z m0-709.15072c-181.18144 0-329.42592 148.95616-329.42592 330.94656 0 182.06208 148.2496 330.9824 329.42592 330.9824s329.42592-148.95104 329.42592-330.9824c0.00512-182.02624-148.2496-330.94656-329.42592-330.94656z m0 614.62528c-155.30496 0-282.37824-127.63136-282.37824-283.6736 0-156.01152 127.06816-283.68384 282.37824-283.68384 155.30496 0 282.37312 127.67232 282.37312 283.68384 0 156.00128-127.06816 283.6736-282.37312 283.6736z"  /><path fill="#333333" d="M621.7216 589.52704c-25.07776 13.19936-56.54016 19.79904-94.38208 19.79904-48.83968 0-87.85408-15.50848-117.03808-46.53056-29.18912-31.02208-43.78112-72.04864-43.78112-123.08992 0-54.85056 16.42496-99.00032 49.28-132.43904 32.85504-33.43872 74.57792-50.16064 125.17888-50.16064 32.55808 0 59.4688 4.61824 80.7424 13.85984v45.9776c-24.35072-13.4912-51.11296-20.23936-80.30208-20.23936-37.98528 0-68.93568 12.65152-92.84096 37.94944-23.90528 25.29792-35.86048 59.43808-35.86048 102.41024 0 40.77568 11.14624 73.14944 33.43872 97.13152 22.29248 23.98208 51.4816 35.968 87.56224 35.968 33.73056 0 63.06304-7.62368 88.00256-22.88128v42.24512z"  /></svg>