<?xml version="1.0" standalone="no"?><!DOCTYPE svg PUBLIC "-//W3C//DTD SVG 1.1//EN" "http://www.w3.org/Graphics/SVG/1.1/DTD/svg11.dtd"><svg class="icon" width="200px" height="200.00px" viewBox="0 0 1024 1024" version="1.1" xmlns="http://www.w3.org/2000/svg"><path fill="#333333" d="M747.17184 973.9776l-204.72832-68.58752c-9.4208-2.36032-18.85184-4.73088-30.59712-4.73088-11.75552 0-21.18144 2.37056-30.60224 4.73088L276.51584 973.9776v-139.48928c-16.45056-9.46176-32.93184-18.9184-47.0528-30.70976v172.5696c0 25.97888 21.18144 47.25248 47.0528 47.25248 4.73088 0 9.42592 0 14.11584-2.36032l204.7232-68.55168c4.73088-2.36544 9.42592-2.36544 14.12096-2.36544 4.73088 0 9.42592 0 14.11584 2.36544l204.7232 68.55168c4.73088 2.36032 9.42592 2.36032 14.12096 2.36032a47.29344 47.29344 0 0 0 47.08352-47.29344v-172.55936c-14.12096 11.82208-30.60224 21.27872-47.08352 30.74048v139.48928h4.736zM511.84128 0c-232.96 0-423.56736 191.48288-423.56736 425.50272 0 234.01984 190.60736 425.53856 423.56736 425.53856 232.96 0 423.55712-191.47776 423.55712-425.53856C935.3984 191.48288 744.80128 0 511.84128 0z m0 803.74784c-207.08864 0-376.51456-170.20416-376.51456-378.24512 0-208.00512 169.42592-378.20928 376.51456-378.20928 207.08864 0 376.50944 170.20416 376.50944 378.20928 0 208.04096-169.4208 378.24512-376.50944 378.24512z m0-709.15072c-181.18144 0-329.42592 148.95616-329.42592 330.94656 0 182.06208 148.2496 330.9824 329.42592 330.9824s329.42592-148.95104 329.42592-330.9824c0.00512-182.02624-148.2496-330.94656-329.42592-330.94656z m0 614.62528c-155.30496 0-282.37824-127.63136-282.37824-283.6736 0-156.01152 127.06816-283.68384 282.37824-283.68384 155.30496 0 282.37312 127.67232 282.37312 283.68384 0 156.00128-127.06816 283.6736-282.37312 283.6736z"  /><path fill="#333333" d="M419.24096 603.60704V262.82496h100.10112c29.92128 0 53.82656 7.14752 71.72096 21.44768 17.88928 14.30016 26.83904 33.25952 26.83904 56.86784 0 18.77504-5.31968 35.34848-15.9488 49.72032-10.63424 14.37696-25.2672 24.57088-43.88864 30.58176v0.88064c23.168 2.64192 41.69216 11.40736 55.552 26.2912 13.85984 14.88896 20.79232 33.77152 20.79232 56.64768 0 29.33248-10.52672 53.05856-31.56992 71.168-21.04832 18.11456-48 27.17184-80.84992 27.17184H419.24096z m44.00128-302.27968v106.7008h40.0384c21.26336 0 37.94944-5.1712 50.048-15.50848s18.1504-24.67328 18.1504-43.008c0-32.11776-21.41696-48.1792-64.24064-48.1792h-43.99616z m0 144.97792v118.79936h52.80256c23.02464 0 40.81152-5.31456 53.3504-15.9488 12.53888-10.62912 18.81088-25.41056 18.81088-44.32896 0-39.00928-26.47552-58.5216-79.42144-58.5216h-45.5424z"  /></svg>